<svg width="83" height="82" viewBox="0 0 83 82" fill="none" xmlns="http://www.w3.org/2000/svg">
<path d="M82.9966 39.4557H72.7279C72.5522 28.9884 70.626 19.5322 67.5213 12.4756C65.8879 8.77411 63.9307 5.72011 61.6495 3.52832C59.3822 1.34346 56.7082 -0.0034512 53.8206 1.13431e-05C51.6118 1.13431e-05 49.5305 0.785978 47.6594 2.13291C45.7883 0.785978 43.7036 -0.0034512 41.4983 1.13431e-05C39.2895 1.13431e-05 37.2082 0.785978 35.3371 2.13291C33.466 0.785978 31.3813 -0.0034512 29.1759 1.13431e-05C26.2883 1.13431e-05 23.6143 1.34346 21.347 3.52832C17.9321 6.8212 15.2168 12.0323 13.2871 18.4969C11.4815 24.5598 10.3961 31.7342 10.2651 39.4557H0V42.5443H10.2686C10.4443 53.0116 12.3705 62.4678 15.4752 69.5244C17.1086 73.2259 19.0658 76.2799 21.347 78.4717C23.6143 80.6565 26.2883 82.0034 29.1759 82C31.3847 82 33.466 81.2139 35.3371 79.867C37.2082 81.2139 39.2929 82.0034 41.4983 82C43.707 82 45.7883 81.2139 47.6594 79.867C49.5305 81.2139 51.6152 82.0034 53.8206 82C56.7082 82 59.3822 80.6565 61.6495 78.4717C65.0644 75.1788 67.7797 69.9677 69.7128 63.5031C71.5184 57.4402 72.6039 50.2658 72.7348 42.5443H83V39.4557H82.9966ZM59.5269 5.75827C62.356 8.45559 64.9506 13.2477 66.7666 19.3799C68.4757 25.1138 69.5302 32.0112 69.6577 39.4557H60.4021C60.2264 28.9884 58.3002 19.5322 55.1955 12.4756C53.7344 9.16537 52.0115 6.37456 50.0336 4.25202C51.2913 3.46949 52.5525 3.08857 53.8206 3.08857C55.7365 3.08857 57.6352 3.95428 59.5269 5.76173V5.75827ZM47.656 75.7778C46.0399 74.0916 44.5099 71.7197 43.1729 68.8111C43.8655 67.156 44.4996 65.3833 45.0612 63.4996C46.8669 57.4367 47.9523 50.2623 48.0833 42.5409H57.3319C57.1596 52.6342 55.2747 61.7267 52.3871 68.271C50.995 71.4323 49.372 73.9877 47.656 75.7778ZM35.3302 75.7778C32.6803 73.0147 30.2648 68.413 28.5453 62.6132C26.8362 56.8792 25.7818 49.9819 25.6543 42.5409H34.9098C35.0821 52.6653 36.8912 61.8306 39.8167 68.8077C38.4797 71.7197 36.9463 74.0916 35.3302 75.7778ZM35.3302 6.21526C36.9463 7.90152 38.4762 10.2734 39.8167 13.1819C39.1241 14.837 38.49 16.6098 37.9284 18.4934C36.1227 24.5563 35.0373 31.7307 34.9064 39.4522H25.6577C25.83 29.3589 27.7149 20.2663 30.6025 13.7221C31.9912 10.5608 33.6176 8.00539 35.3302 6.21526ZM42.1151 19.3799C43.8242 25.1138 44.8786 32.0112 45.0061 39.4557H37.9801C38.1213 31.1456 39.4239 23.5211 41.4948 17.434C41.7084 18.0676 41.9187 18.7151 42.1151 19.3833V19.3799ZM40.8677 62.6167C39.1585 56.8827 38.1041 49.9853 37.9766 42.5443H45.0027C44.8614 50.8544 43.5589 58.4789 41.4879 64.566C41.2743 63.9324 41.0641 63.2849 40.8677 62.6167ZM48.0729 39.4557C47.9006 29.3312 46.0915 20.1624 43.166 13.1889C44.503 10.2769 46.0364 7.90498 47.6525 6.21873C50.3024 8.98184 52.7179 13.5836 54.4374 19.3833C56.1465 25.1173 57.201 32.0147 57.3285 39.4591H48.0729V39.4557ZM45.2783 4.25202C43.8897 5.74092 42.625 7.56226 41.4914 9.66056C40.3577 7.56226 39.0931 5.74092 37.7044 4.25202C38.9621 3.46949 40.2233 3.08857 41.4914 3.08857C42.7594 3.08857 44.0206 3.47295 45.2783 4.25202ZM18.2733 13.7256C19.786 10.2873 21.5778 7.56225 23.4558 5.76173C25.3476 3.95428 27.2497 3.09204 29.1622 3.08857C30.4302 3.08857 31.6914 3.47295 32.9491 4.25202C29.8651 7.56222 27.391 12.4859 25.5957 18.4969C23.7901 24.5598 22.7046 31.7342 22.5737 39.4557H13.325C13.4973 29.3624 15.3822 20.2698 18.2698 13.7256H18.2733ZM23.4558 76.2383C20.6268 73.5409 18.0321 68.7488 16.2161 62.6167C14.507 56.8827 13.4525 49.9853 13.325 42.5443H22.5806C22.7563 53.0116 24.6825 62.4678 27.7872 69.5244C29.2483 72.8346 30.9712 75.6254 32.9491 77.748C31.6914 78.5305 30.4302 78.9114 29.1622 78.9114C27.2463 78.9114 25.3476 78.0457 23.4558 76.2383ZM37.7009 77.748C39.0896 76.2591 40.3542 74.4377 41.4879 72.3394C42.6216 74.4377 43.8862 76.2591 45.2749 77.748C44.0172 78.5305 42.756 78.9114 41.4879 78.9114C40.2198 78.9114 38.9587 78.527 37.7009 77.748ZM64.706 68.2744C63.1933 71.7127 61.4015 74.4377 59.5235 76.2383C57.6317 78.0457 55.7296 78.908 53.8171 78.9114C52.5491 78.9114 51.2879 78.527 50.0302 77.748C53.1142 74.4378 55.5883 69.5141 57.3836 63.5031C59.1892 57.4402 60.2746 50.2658 60.4056 42.5443H69.6542C69.4819 52.6376 67.5971 61.7302 64.7094 68.2744H64.706Z" fill="white"/>
</svg>
